<svg width="20" height="20" viewBox="0 0 20 20" fill="none" xmlns="http://www.w3.org/2000/svg">
<path d="M4.16667 18.3332C3.70833 18.3332 3.31583 18.1698 2.98917 17.8432C2.6625 17.5165 2.49945 17.1243 2.5 16.6665V4.99984C2.5 4.5415 2.66333 4.149 2.99 3.82234C3.31667 3.49567 3.70889 3.33262 4.16667 3.33317H5V1.6665H6.66667V3.33317H13.3333V1.6665H15V3.33317H15.8333C16.2917 3.33317 16.6842 3.4965 17.0108 3.82317C17.3375 4.14984 17.5006 4.54206 17.5 4.99984V9.99984H15.8333V8.33317H4.16667V16.6665H10V18.3332H4.16667ZM18.4375 14.1665L16.6667 12.3957L17.2708 11.7915C17.4236 11.6387 17.6181 11.5623 17.8542 11.5623C18.0903 11.5623 18.2847 11.6387 18.4375 11.7915L19.0417 12.3957C19.1944 12.5484 19.2708 12.7429 19.2708 12.979C19.2708 13.2151 19.1944 13.4096 19.0417 13.5623L18.4375 14.1665ZM11.6667 19.1665V17.3957L16.0833 12.979L17.8542 14.7498L13.4375 19.1665H11.6667ZM4.16667 6.6665H15.8333V4.99984H4.16667V6.6665Z" fill="white"/>
</svg>
