<svg width="20" height="20" viewBox="0 0 20 20" fill="none" xmlns="http://www.w3.org/2000/svg">
<path d="M5.34588 7.50385C5.26862 7.58095 5.20733 7.67252 5.16552 7.77333C5.1237 7.87415 5.10217 7.98221 5.10217 8.09135C5.10217 8.2005 5.1237 8.30856 5.16552 8.40937C5.20733 8.51019 5.26862 8.60176 5.34588 8.67885L9.17088 12.5039C9.24797 12.5811 9.33955 12.6424 9.44036 12.6842C9.54117 12.726 9.64924 12.7476 9.75838 12.7476C9.86752 12.7476 9.97559 12.726 10.0764 12.6842C10.1772 12.6424 10.2688 12.5811 10.3459 12.5039L14.1709 8.67885C14.248 8.6017 14.3092 8.51011 14.351 8.40931C14.3927 8.3085 14.4142 8.20046 14.4142 8.09135C14.4142 7.98225 14.3927 7.87421 14.351 7.7734C14.3092 7.6726 14.248 7.58101 14.1709 7.50385C14.0937 7.4267 14.0021 7.3655 13.9013 7.32375C13.8005 7.28199 13.6925 7.2605 13.5834 7.2605C13.4743 7.2605 13.3662 7.28199 13.2654 7.32375C13.1646 7.3655 13.073 7.4267 12.9959 7.50385L9.75421 10.7372L6.52088 7.50385C6.19588 7.17885 5.66254 7.18719 5.34588 7.50385Z" fill="white"/>
</svg>
