<svg width="20" height="20" viewBox="0 0 20 20" fill="none" xmlns="http://www.w3.org/2000/svg">
<path fill-rule="evenodd" clip-rule="evenodd" d="M9.99996 18.3332C14.6025 18.3332 18.3333 14.6023 18.3333 9.99984C18.3333 5.39734 14.6025 1.6665 9.99996 1.6665C5.39746 1.6665 1.66663 5.39734 1.66663 9.99984C1.66663 14.6023 5.39746 18.3332 9.99996 18.3332ZM14.714 14.7139C15.9642 13.4636 16.6666 11.7679 16.6666 9.99984C16.6666 8.23173 15.9642 6.53603 14.714 5.28579C13.4638 4.03555 11.7681 3.33317 9.99996 3.33317C8.23185 3.33317 6.53616 4.03555 5.28591 5.28579C4.03567 6.53603 3.33329 8.23173 3.33329 9.99984C3.33329 11.7679 4.03567 13.4636 5.28591 14.7139C6.53616 15.9641 8.23185 16.6665 9.99996 16.6665C11.7681 16.6665 13.4638 15.9641 14.714 14.7139ZM12.357 13.1902C11.7319 13.8154 10.884 14.1665 9.99996 14.1665C9.1159 14.1665 8.26806 13.8154 7.64294 13.1902C7.01782 12.5651 6.66663 11.7173 6.66663 10.8332H13.3333C13.3333 11.7173 12.9821 12.5651 12.357 13.1902ZM8.08921 8.92247C8.24549 8.76619 8.33329 8.55422 8.33329 8.33321C8.33329 8.1122 8.24549 7.90024 8.08921 7.74396C7.93293 7.58768 7.72097 7.49988 7.49996 7.49988C7.27895 7.49988 7.06698 7.58768 6.9107 7.74396C6.75442 7.90024 6.66663 8.1122 6.66663 8.33321C6.66663 8.55422 6.75442 8.76619 6.9107 8.92247C7.06698 9.07875 7.27895 9.16654 7.49996 9.16654C7.72097 9.16654 7.93293 9.07875 8.08921 8.92247ZM13.0892 8.92247C12.9329 9.07875 12.721 9.16654 12.5 9.16654C12.2789 9.16654 12.067 9.07875 11.9107 8.92247C11.7544 8.76619 11.6666 8.55422 11.6666 8.33321C11.6666 8.1122 11.7544 7.90024 11.9107 7.74396C12.067 7.58768 12.2789 7.49988 12.5 7.49988C12.721 7.49988 12.9329 7.58768 13.0892 7.74396C13.2455 7.90024 13.3333 8.1122 13.3333 8.33321C13.3333 8.55422 13.2455 8.76619 13.0892 8.92247Z" fill="white"/>
</svg>
