<svg width="20" height="20" viewBox="0 0 20 20" fill="none" xmlns="http://www.w3.org/2000/svg">
<path d="M5.34588 7.50382C5.26862 7.58092 5.20733 7.67249 5.16552 7.7733C5.1237 7.87412 5.10217 7.98218 5.10217 8.09132C5.10217 8.20046 5.1237 8.30853 5.16552 8.40934C5.20733 8.51016 5.26862 8.60173 5.34588 8.67882L9.17088 12.5038C9.24797 12.5811 9.33955 12.6424 9.44036 12.6842C9.54117 12.726 9.64924 12.7475 9.75838 12.7475C9.86752 12.7475 9.97559 12.726 10.0764 12.6842C10.1772 12.6424 10.2688 12.5811 10.3459 12.5038L14.1709 8.67882C14.248 8.60167 14.3092 8.51008 14.351 8.40928C14.3927 8.30847 14.4142 8.20043 14.4142 8.09132C14.4142 7.98222 14.3927 7.87417 14.351 7.77337C14.3092 7.67257 14.248 7.58098 14.1709 7.50382C14.0937 7.42667 14.0021 7.36547 13.9013 7.32372C13.8005 7.28196 13.6925 7.26047 13.5834 7.26047C13.4743 7.26047 13.3662 7.28196 13.2654 7.32372C13.1646 7.36547 13.073 7.42667 12.9959 7.50382L9.75421 10.7372L6.52088 7.50382C6.19588 7.17882 5.66254 7.18716 5.34588 7.50382Z" fill="white"/>
</svg>
