<svg width="20" height="20" viewBox="0 0 20 20" fill="none" xmlns="http://www.w3.org/2000/svg">
<path d="M14.7558 4.41074C14.912 4.56701 14.9998 4.77893 14.9998 4.9999C14.9998 5.22087 14.912 5.4328 14.7558 5.58907L10.345 9.9999L14.7558 14.4107C14.9076 14.5679 14.9916 14.7784 14.9897 14.9969C14.9878 15.2154 14.9002 15.4244 14.7457 15.5789C14.5912 15.7334 14.3821 15.8211 14.1637 15.823C13.9452 15.8249 13.7347 15.7409 13.5775 15.5891L8.57748 10.5891C8.42126 10.4328 8.3335 10.2209 8.3335 9.9999C8.3335 9.77893 8.42126 9.56701 8.57748 9.41074L13.5775 4.41074C13.7338 4.25451 13.9457 4.16675 14.1667 4.16675C14.3876 4.16675 14.5995 4.25451 14.7558 4.41074ZM9.75582 4.41074C9.91204 4.56701 9.99981 4.77893 9.99981 4.9999C9.99981 5.22087 9.91204 5.4328 9.75582 5.58907L5.34498 9.9999L9.75582 14.4107C9.90762 14.5679 9.99161 14.7784 9.98971 14.9969C9.98781 15.2154 9.90017 15.4244 9.74567 15.5789C9.59116 15.7334 9.38215 15.8211 9.16365 15.823C8.94515 15.8249 8.73465 15.7409 8.57748 15.5891L3.57748 10.5891C3.42126 10.4328 3.3335 10.2209 3.3335 9.9999C3.3335 9.77893 3.42126 9.56701 3.57748 9.41074L8.57748 4.41074C8.73376 4.25451 8.94568 4.16675 9.16665 4.16675C9.38762 4.16675 9.59954 4.25451 9.75582 4.41074Z" fill="white"/>
</svg>
