<svg width="20" height="20" viewBox="0 0 20 20" fill="none" xmlns="http://www.w3.org/2000/svg">
<path d="M7.61192 14.0633L7.61156 14.0629C7.48689 13.9382 7.48507 13.7215 7.61156 13.595L10.8449 10.3617L11.198 10.0086L10.8453 9.65502L7.61201 6.41335L7.61156 6.4129C7.58084 6.38218 7.55647 6.34571 7.53984 6.30556C7.52321 6.26542 7.51466 6.2224 7.51466 6.17895C7.51466 6.13551 7.52321 6.09248 7.53984 6.05234C7.55647 6.0122 7.58084 5.97573 7.61156 5.94501C7.64228 5.91428 7.67876 5.88991 7.71889 5.87329C7.75903 5.85666 7.80206 5.8481 7.84551 5.8481C7.88896 5.8481 7.93198 5.85666 7.97212 5.87329C8.01226 5.88991 8.04873 5.91428 8.07945 5.94501L11.9045 9.77001L11.9048 9.77037C11.9355 9.80102 11.9599 9.83743 11.9765 9.87751C11.9932 9.91759 12.0017 9.96056 12.0017 10.004C12.0017 10.0473 11.9932 10.0903 11.9765 10.1304C11.9599 10.1705 11.9355 10.2069 11.9048 10.2375L11.9045 10.2379L8.07945 14.0629L8.07909 14.0633C8.04844 14.094 8.01203 14.1183 7.97195 14.135C7.93187 14.1516 7.8889 14.1602 7.84551 14.1602C7.80211 14.1602 7.75915 14.1516 7.71906 14.135C7.67898 14.1183 7.64257 14.094 7.61192 14.0633Z" fill="black"/>
<path d="M7.61192 14.0633L7.61156 14.0629C7.48689 13.9382 7.48507 13.7215 7.61156 13.595L10.8449 10.3617L11.198 10.0086L10.8453 9.65502L7.61201 6.41335L7.61156 6.4129C7.58084 6.38218 7.55647 6.34571 7.53984 6.30556C7.52321 6.26542 7.51466 6.2224 7.51466 6.17895C7.51466 6.13551 7.52321 6.09248 7.53984 6.05234C7.55647 6.0122 7.58084 5.97573 7.61156 5.94501C7.64228 5.91428 7.67876 5.88991 7.71889 5.87329C7.75903 5.85666 7.80206 5.8481 7.84551 5.8481C7.88896 5.8481 7.93198 5.85666 7.97212 5.87329C8.01226 5.88991 8.04873 5.91428 8.07945 5.94501L11.9045 9.77001L11.9048 9.77037C11.9355 9.80102 11.9599 9.83743 11.9765 9.87751C11.9932 9.91759 12.0017 9.96056 12.0017 10.004C12.0017 10.0473 11.9932 10.0903 11.9765 10.1304C11.9599 10.1705 11.9355 10.2069 11.9048 10.2375L11.9045 10.2379L8.07945 14.0629L8.07909 14.0633C8.04844 14.094 8.01203 14.1183 7.97195 14.135C7.93187 14.1516 7.8889 14.1602 7.84551 14.1602C7.80211 14.1602 7.75915 14.1516 7.71906 14.135C7.67898 14.1183 7.64257 14.094 7.61192 14.0633Z" stroke="#1C1C1E"/>
<path d="M7.61192 14.0633L7.61156 14.0629C7.48689 13.9382 7.48507 13.7215 7.61156 13.595L10.8449 10.3617L11.198 10.0086L10.8453 9.65502L7.61201 6.41335L7.61156 6.4129C7.58084 6.38218 7.55647 6.34571 7.53984 6.30556C7.52321 6.26542 7.51466 6.2224 7.51466 6.17895C7.51466 6.13551 7.52321 6.09248 7.53984 6.05234C7.55647 6.0122 7.58084 5.97573 7.61156 5.94501C7.64228 5.91428 7.67876 5.88991 7.71889 5.87329C7.75903 5.85666 7.80206 5.8481 7.84551 5.8481C7.88896 5.8481 7.93198 5.85666 7.97212 5.87329C8.01226 5.88991 8.04873 5.91428 8.07945 5.94501L11.9045 9.77001L11.9048 9.77037C11.9355 9.80102 11.9599 9.83743 11.9765 9.87751C11.9932 9.91759 12.0017 9.96056 12.0017 10.004C12.0017 10.0473 11.9932 10.0903 11.9765 10.1304C11.9599 10.1705 11.9355 10.2069 11.9048 10.2375L11.9045 10.2379L8.07945 14.0629L8.07909 14.0633C8.04844 14.094 8.01203 14.1183 7.97195 14.135C7.93187 14.1516 7.8889 14.1602 7.84551 14.1602C7.80211 14.1602 7.75915 14.1516 7.71906 14.135C7.67898 14.1183 7.64257 14.094 7.61192 14.0633Z" stroke="white" stroke-opacity="0.2"/>
</svg>
