<svg width="20" height="20" viewBox="0 0 20 20" fill="none" xmlns="http://www.w3.org/2000/svg">
<path d="M16.6666 7.91659V5.99992C16.6666 5.0665 16.6666 4.59979 16.485 4.24327C16.3252 3.92967 16.0702 3.6747 15.7566 3.51491C15.4001 3.33325 14.9334 3.33325 14 3.33325H4.33329C3.39987 3.33325 2.93316 3.33325 2.57664 3.51491C2.26304 3.6747 2.00807 3.92966 1.84828 4.24327C1.66663 4.59979 1.66663 5.0665 1.66663 5.99992V13.9999C1.66663 14.9333 1.66663 15.4 1.84828 15.7566C2.00807 16.0702 2.26304 16.3251 2.57664 16.4849C2.93316 16.6666 3.39987 16.6666 4.33329 16.6666L14 16.6666C14.9334 16.6666 15.4001 16.6666 15.7566 16.4849C16.0702 16.3251 16.3252 16.0702 16.485 15.7566C16.6666 15.4 16.6666 14.9333 16.6666 13.9999V12.0833M12.5 9.99992C12.5 9.61271 12.5 9.4191 12.532 9.2581C12.6635 8.59695 13.1803 8.08012 13.8415 7.94861C14.0025 7.91659 14.1961 7.91659 14.5833 7.91659H16.25C16.6372 7.91659 16.8308 7.91659 16.9918 7.94861C17.6529 8.08012 18.1698 8.59695 18.3013 9.2581C18.3333 9.4191 18.3333 9.61271 18.3333 9.99992C18.3333 10.3871 18.3333 10.5807 18.3013 10.7417C18.1698 11.4029 17.6529 11.9197 16.9918 12.0512C16.8308 12.0833 16.6372 12.0833 16.25 12.0833H14.5833C14.1961 12.0833 14.0025 12.0833 13.8415 12.0512C13.1803 11.9197 12.6635 11.4029 12.532 10.7417C12.5 10.5807 12.5 10.3871 12.5 9.99992Z" stroke="white" stroke-width="2" stroke-linecap="round" stroke-linejoin="round"/>
</svg>
